<svg width="12" height="14" viewBox="0 0 12 14" fill="none" xmlns="http://www.w3.org/2000/svg">
<path d="M9.68748 7.44515C9.70093 6.36442 10.2614 5.3418 11.1506 4.77574C10.5897 3.94618 9.65011 3.42021 8.67257 3.38855C7.62995 3.27523 6.61918 4.03456 6.08788 4.03456C5.5463 4.03456 4.72828 3.3998 3.8474 3.41856C2.69922 3.45697 1.62883 4.13292 1.07022 5.17234C-0.130579 7.32508 0.765108 10.4889 1.91537 12.229C2.49087 13.0811 3.16347 14.0329 4.04355 13.9991C4.90476 13.9621 5.2264 13.4305 6.26596 13.4305C7.29586 13.4305 7.59763 13.9991 8.49556 13.9777C9.41968 13.9621 10.0019 13.1218 10.5572 12.2616C10.9707 11.6545 11.2889 10.9835 11.5 10.2734C10.414 9.79781 9.68875 8.66613 9.68748 7.44515Z" fill="white"/>
<path d="M7.99142 2.24416C8.49529 1.61783 8.74352 0.81279 8.68341 0C7.91361 0.0837203 7.20254 0.464684 6.69186 1.06698C6.19249 1.65546 5.93262 2.44634 5.98175 3.22806C6.75182 3.23627 7.50887 2.86564 7.99142 2.24416Z" fill="white"/>
</svg>
