<svg width="86" height="86" viewBox="0 0 86 86" fill="none" xmlns="http://www.w3.org/2000/svg">
<path d="M43 73.503C59.2364 73.503 72.3985 68.3396 72.3985 61.9703C72.3985 55.6009 59.2364 50.4375 43 50.4375C26.7637 50.4375 13.6016 55.6009 13.6016 61.9703C13.6016 68.3396 26.7637 73.503 43 73.503Z" fill="white"/>
<path d="M31.2196 27.4668L30.0602 34.737H26.2921L27.4515 27.4668H31.2196Z" fill="white"/>
<path d="M49.9572 34.9805C50.2081 34.9805 50.3801 35.1764 50.341 35.4184C50.3028 35.6605 50.0687 35.8572 49.8171 35.8572H35.0896C34.8387 35.8572 34.6659 35.6605 34.705 35.4184C34.7432 35.1764 34.9781 34.9805 35.2289 34.9805H49.9572Z" fill="#A31211"/>
<path d="M51.1811 29.7877H59.7612L58.4744 37.8565L57.9647 41.0529H35.385C34.5624 41.0529 33.9277 40.5209 33.837 39.7541L33.7669 39.1545C33.6761 38.3885 33.0415 37.8557 32.2189 37.8557H25.7952L26.1527 35.6118H30.8294L32.2683 26.5897H27.5916L28.4245 21.3652H52.3747L52.5006 21.5086L51.1811 29.7877ZM50.2861 32.9195C50.5369 32.9195 50.771 32.7236 50.8092 32.4815C50.8474 32.2395 50.6762 32.0428 50.4254 32.0428H35.6971C35.4463 32.0428 35.2114 32.2395 35.1724 32.4815C35.1341 32.7236 35.3061 32.9195 35.557 32.9195H50.2861ZM49.8178 35.8562C50.0687 35.8562 50.3028 35.6595 50.3418 35.4175C50.38 35.1754 50.2088 34.9795 49.958 34.9795H35.2289C34.9781 34.9795 34.7431 35.1754 34.7049 35.4175C34.6667 35.6595 34.8387 35.8562 35.0895 35.8562H49.8178ZM49.3496 38.7914C49.6004 38.7914 49.8346 38.5955 49.8728 38.3534C49.911 38.1113 49.7398 37.9147 49.489 37.9147H34.7607C34.5098 37.9147 34.2749 38.1113 34.2359 38.3534C34.1977 38.5955 34.3697 38.7914 34.6205 38.7914H49.3496Z" fill="white"/>
<path d="M49.489 37.916C49.7398 37.916 49.911 38.1127 49.8728 38.3548C49.8345 38.5968 49.6004 38.7927 49.3496 38.7927H34.6213C34.3705 38.7927 34.1977 38.5968 34.2367 38.3548C34.2749 38.1127 34.5098 37.916 34.7615 37.916H49.489Z" fill="#A31211"/>
<path d="M49.489 37.916C49.7398 37.916 49.911 38.1127 49.8728 38.3548C49.8345 38.5968 49.6004 38.7927 49.3496 38.7927H34.6213C34.3705 38.7927 34.1977 38.5968 34.2367 38.3548C34.2749 38.1127 34.5098 37.916 34.7615 37.916H49.489Z" fill="#A31211"/>
<path d="M65.661 41.3144C65.6602 41.2897 65.6578 41.2651 65.6555 41.2404C65.6539 41.226 65.6531 41.2109 65.6515 41.1966C65.6483 41.1695 65.6435 41.1424 65.6387 41.1154C65.6371 41.1058 65.6363 41.0962 65.634 41.0867C65.634 41.0851 65.6332 41.0835 65.6324 41.0811C65.6268 41.0524 65.6196 41.0238 65.6125 40.9959C65.6109 40.9887 65.6093 40.9808 65.6069 40.9736C65.5973 40.9386 65.5862 40.9035 65.5734 40.8693C65.5734 40.8685 65.5726 40.8677 65.5726 40.8669C65.5718 40.8653 65.5711 40.8637 65.5703 40.8613C65.5511 40.8096 65.5296 40.7602 65.505 40.7116C65.5026 40.7076 65.5018 40.7029 65.4994 40.6989C65.4986 40.6965 65.497 40.6949 65.4954 40.6925C65.4731 40.6503 65.4492 40.6089 65.4229 40.5691C65.4206 40.5651 65.4182 40.5611 65.4158 40.5571C65.4038 40.5396 65.3919 40.5221 65.3799 40.5054L63.8821 38.4629C63.8972 38.4836 63.9116 38.5051 63.9251 38.5266C63.9514 38.5664 63.9753 38.6078 63.9976 38.65C64.0008 38.6564 64.0039 38.6628 64.0071 38.6691C64.031 38.7177 64.0533 38.7679 64.0724 38.8188C64.0732 38.8212 64.0748 38.8236 64.0756 38.8268C64.0876 38.861 64.0987 38.8961 64.1091 38.9311C64.1114 38.9383 64.1122 38.9462 64.1146 38.9534C64.1218 38.9813 64.129 39.0099 64.1345 39.0386C64.1369 39.0498 64.1385 39.0609 64.1401 39.0721C64.1449 39.0991 64.1489 39.1254 64.1529 39.1533C64.1544 39.1676 64.1552 39.1827 64.1568 39.1971C64.1592 39.2218 64.1608 39.2464 64.1624 39.2711C64.1632 39.2871 64.1632 39.303 64.1632 39.3189C64.1632 39.3428 64.1632 39.3675 64.1624 39.3914C64.1616 39.4073 64.1616 39.424 64.16 39.4407C64.1584 39.4654 64.156 39.4901 64.1536 39.5156C64.1521 39.5315 64.1505 39.5474 64.1481 39.5642C64.1441 39.5912 64.1401 39.6175 64.1345 39.6446C64.1321 39.6589 64.1298 39.6733 64.1266 39.6876C64.1194 39.7226 64.1106 39.7577 64.1011 39.7927C64.0995 39.7991 64.0979 39.8054 64.0963 39.8126C64.0844 39.854 64.0708 39.8962 64.0557 39.9376C64.0509 39.9504 64.0453 39.9631 64.0406 39.9759C64.0294 40.0053 64.0175 40.0348 64.0047 40.0634C63.9896 40.0969 63.9745 40.1303 63.9578 40.1646L53.2117 61.3652L53.1576 61.2919C53.1385 61.3357 53.1178 61.3779 53.0955 61.4201C53.0939 61.4233 53.0923 61.4257 53.0915 61.4289C53.07 61.4695 53.0469 61.5085 53.023 61.5475C52.9904 61.6001 52.9561 61.6502 52.9195 61.6996C52.9091 61.7139 52.898 61.7267 52.8876 61.7402C52.863 61.7713 52.8383 61.8023 52.812 61.8326C52.7985 61.8485 52.7841 61.8636 52.7698 61.8788C52.7459 61.9043 52.7212 61.9297 52.6957 61.9544C52.6806 61.9688 52.6663 61.9839 52.6511 61.9974C52.6241 62.0221 52.5962 62.046 52.5683 62.0699C52.554 62.0818 52.5405 62.0938 52.5261 62.1057C52.4831 62.1408 52.4385 62.1742 52.3924 62.2053C52.3446 62.2379 52.2952 62.2682 52.245 62.2976C52.2315 62.3056 52.2172 62.3128 52.2028 62.3207C52.1598 62.3446 52.116 62.3669 52.0714 62.3876C52.0539 62.3964 52.0356 62.4043 52.0181 62.4123C52.0014 62.4195 51.9846 62.4266 51.9679 62.433C51.9409 62.4441 51.9138 62.4545 51.8867 62.4641C51.8692 62.4704 51.8525 62.476 51.8349 62.4824C51.8079 62.4911 51.7808 62.4999 51.7537 62.507C51.7346 62.5126 51.7163 62.5182 51.6972 62.523C51.6693 62.5301 51.6406 62.5365 51.612 62.5429C51.5937 62.5469 51.5753 62.5508 51.5578 62.5548C51.5268 62.5604 51.4949 62.5652 51.4631 62.5692C51.4479 62.5716 51.432 62.5739 51.4169 62.5755C51.3699 62.5811 51.3221 62.5851 51.2751 62.5867L52.773 64.6292C52.7754 64.6292 52.7778 64.6284 52.7801 64.6284L52.7809 64.6292C52.7857 64.6292 52.7905 64.6292 52.7961 64.6292C52.8184 64.6292 52.8399 64.6284 52.8622 64.6276C52.8717 64.6268 52.8813 64.6252 52.8908 64.6252C52.9386 64.6228 52.9864 64.618 53.0334 64.6117C53.0477 64.6101 53.0612 64.6085 53.0756 64.6069C53.1361 64.5981 53.1958 64.5862 53.2555 64.5711C53.2699 64.5679 53.2834 64.5631 53.2969 64.5599C53.328 64.5511 53.3599 64.544 53.3909 64.5336C53.4076 64.528 53.4244 64.5217 53.4411 64.5161C53.4538 64.5121 53.4658 64.5073 53.4785 64.5034C53.5303 64.4843 53.5812 64.4643 53.6314 64.4421C53.6346 64.4405 53.6378 64.4381 53.6417 64.4373C53.6449 64.4357 53.6489 64.4349 53.6529 64.4325C53.6529 64.4325 53.6529 64.4317 53.6521 64.4317C53.6521 64.4317 53.6521 64.4325 53.6529 64.4325C53.7086 64.407 53.7628 64.3783 53.8161 64.3481C53.8177 64.3473 53.8185 64.3465 53.8201 64.3457C53.836 64.3369 53.8504 64.3266 53.8655 64.317C53.9013 64.2955 53.9372 64.274 53.9722 64.2501C53.9754 64.2486 53.9778 64.247 53.981 64.2446C54.0025 64.2302 54.0224 64.2135 54.0431 64.1976C54.0678 64.1793 54.0924 64.1626 54.1155 64.1434C54.1187 64.1411 54.1211 64.1395 54.1243 64.1371C54.1466 64.1196 54.1665 64.0996 54.188 64.0813C54.2063 64.0654 54.2254 64.0503 54.2429 64.0336C54.2469 64.0296 54.2509 64.0264 54.2549 64.0224C54.2557 64.0216 54.2557 64.0216 54.2565 64.0208C54.2573 64.02 54.2573 64.02 54.2581 64.0192C54.2629 64.0152 54.2676 64.0105 54.2716 64.0065C54.282 63.9969 54.2899 63.9858 54.3003 63.9762C54.3273 63.9491 54.3552 63.9221 54.3807 63.8934C54.3879 63.8854 54.3942 63.8767 54.4014 63.8687C54.407 63.8623 54.4141 63.856 54.4197 63.8496C54.4253 63.8432 54.4309 63.8361 54.4364 63.8297C54.4548 63.8074 54.4723 63.7851 54.4898 63.762C54.493 63.758 54.497 63.7541 54.5001 63.7493C54.5009 63.7477 54.5017 63.7461 54.5033 63.7445C54.54 63.6959 54.5742 63.645 54.6069 63.5932C54.61 63.5876 54.614 63.5828 54.6172 63.5781C54.6204 63.5733 54.6228 63.5677 54.626 63.5629C54.6514 63.5207 54.6753 63.4785 54.6976 63.4339L65.4596 42.2047C65.4739 42.176 65.4882 42.1466 65.501 42.1179C65.5034 42.1131 65.505 42.1083 65.5066 42.1044C65.5193 42.0749 65.5312 42.0454 65.5424 42.0168C65.5472 42.004 65.5527 41.9913 65.5575 41.9785C65.5726 41.9371 65.5862 41.8949 65.5981 41.8535C65.5997 41.8471 65.6013 41.8408 65.6029 41.8336C65.6125 41.7986 65.6212 41.7635 65.6284 41.7285C65.6316 41.7142 65.634 41.6998 65.6364 41.6855C65.6411 41.6584 65.6459 41.6314 65.6499 41.6051C65.6523 41.5891 65.6539 41.5732 65.6555 41.5565C65.6578 41.5318 65.6602 41.5063 65.6618 41.4816C65.6626 41.4649 65.6634 41.449 65.6642 41.4323C65.665 41.4076 65.665 41.3837 65.665 41.3598C65.6618 41.3463 65.6618 41.3304 65.661 41.3144Z" fill="#FF9E9E"/>
<path d="M52.6837 64.8148L50.9303 62.4235L51.2663 62.41C51.3093 62.4084 51.3523 62.4044 51.3953 62.3996C51.4025 62.3988 51.4089 62.398 51.416 62.3965L51.4375 62.3933C51.4662 62.3893 51.4949 62.3853 51.5235 62.3797C51.5347 62.3773 51.545 62.375 51.5554 62.3734L51.5729 62.3694C51.5984 62.3638 51.6247 62.3582 51.6501 62.3519C51.6645 62.3479 51.6788 62.3439 51.6923 62.3399L51.7019 62.3367C51.7266 62.3296 51.7521 62.3224 51.7768 62.3136C51.7927 62.3081 51.8086 62.3025 51.8245 62.2969C51.8492 62.2882 51.8747 62.2786 51.8994 62.2682C51.9169 62.2611 51.9312 62.2555 51.9456 62.2491C51.9567 62.2444 51.9679 62.2388 51.979 62.2332L51.9949 62.226C52.0364 62.2069 52.0762 62.1862 52.116 62.1639L52.155 62.1424C52.2068 62.1122 52.2506 62.0851 52.2904 62.0572C52.3294 62.0302 52.37 62.0007 52.413 61.9657C52.421 61.9593 52.4281 61.9529 52.4353 61.9465L52.452 61.9322C52.4775 61.9107 52.5038 61.8884 52.5285 61.8653C52.5404 61.8542 52.5523 61.8422 52.5643 61.8303C52.593 61.8024 52.6153 61.7793 52.6376 61.7554C52.6503 61.7419 52.663 61.7276 52.6758 61.7132C52.7005 61.6854 52.7236 61.6575 52.7459 61.628L52.7586 61.6121C52.7642 61.6049 52.7697 61.5978 52.7753 61.5906C52.8104 61.5444 52.8422 61.4974 52.8701 61.4512C52.8924 61.4154 52.9131 61.3796 52.933 61.343L52.9362 61.3358C52.9569 61.2968 52.976 61.2577 52.9927 61.2179L53.1169 60.9329L53.1822 61.022L63.7992 40.0834C63.8152 40.0524 63.8287 40.0221 63.8422 39.9911C63.8542 39.964 63.8645 39.9377 63.8749 39.9106L63.8884 39.8772C63.902 39.839 63.9147 39.8007 63.9258 39.7633L63.9306 39.745C63.9394 39.714 63.9474 39.6821 63.9537 39.651C63.9553 39.6439 63.9561 39.6367 63.9577 39.6295L63.9609 39.612C63.9657 39.5873 63.9696 39.5634 63.9728 39.5396C63.9744 39.5284 63.9752 39.5173 63.9768 39.5053L63.9776 39.4966C63.98 39.4743 63.9824 39.452 63.9832 39.4297C63.984 39.4153 63.9848 39.401 63.9848 39.3859C63.9856 39.3636 63.9856 39.3421 63.9856 39.3206C63.9856 39.307 63.9856 39.2927 63.9848 39.2784C63.984 39.2561 63.9824 39.2346 63.98 39.2131L63.9784 39.198C63.9776 39.19 63.9768 39.182 63.976 39.1741C63.9728 39.1502 63.9689 39.1263 63.9649 39.1024L63.9601 39.0721C63.9553 39.0467 63.9489 39.022 63.9426 38.9973L63.9386 38.9822C63.929 38.9471 63.9195 38.9161 63.9083 38.8866L63.9059 38.881C63.89 38.8364 63.8709 38.7934 63.8486 38.748L63.843 38.7361C63.8223 38.6963 63.8008 38.6597 63.7769 38.623C63.765 38.6047 63.7531 38.5864 63.7403 38.5689L63.7387 38.5673L64.0278 38.3555L65.5256 40.398C65.5399 40.4171 65.5535 40.4362 65.5662 40.4561L65.5774 40.4744C65.6036 40.515 65.6299 40.558 65.653 40.6026L65.6594 40.6146C65.6626 40.6209 65.6658 40.6273 65.6681 40.6345C65.6952 40.6886 65.7175 40.7404 65.7366 40.7913L65.7446 40.8112C65.7581 40.8503 65.7701 40.8869 65.7804 40.9235C65.782 40.9299 65.7836 40.9371 65.7852 40.9442C65.7948 40.9801 65.8019 41.0119 65.8083 41.0438L65.8099 41.0525C65.8115 41.0589 65.8123 41.0669 65.8139 41.0756C65.8202 41.1122 65.825 41.1417 65.829 41.1728C65.8306 41.1855 65.8314 41.1982 65.833 41.211L65.8338 41.2213C65.8362 41.2484 65.8386 41.2755 65.8394 41.3034C65.8401 41.3209 65.8401 41.3384 65.8409 41.3559C65.8417 41.383 65.8409 41.4101 65.8401 41.4371C65.8394 41.4547 65.8386 41.473 65.8378 41.4913C65.8362 41.5184 65.8338 41.5462 65.8306 41.5741L65.8298 41.5821C65.8282 41.5972 65.8266 41.6123 65.8242 41.6275C65.8202 41.6569 65.8155 41.6864 65.8099 41.7158L65.8075 41.7294C65.8059 41.7405 65.8035 41.7525 65.8011 41.7636C65.7932 41.8018 65.7836 41.8409 65.7733 41.8791C65.7709 41.8886 65.7693 41.895 65.7677 41.9014C65.7549 41.9468 65.7398 41.9922 65.7231 42.0375C65.7191 42.0471 65.7159 42.0574 65.7119 42.067L65.7072 42.0797C65.6952 42.1116 65.6825 42.1435 65.6681 42.1753C65.6666 42.1801 65.6642 42.1849 65.6618 42.1904C65.6474 42.2223 65.6323 42.2533 65.6164 42.2852L54.8552 63.5168C54.8329 63.5598 54.8075 63.606 54.7772 63.657C54.7748 63.6618 54.7716 63.6673 54.7684 63.6729C54.7645 63.6801 54.7597 63.6857 54.7557 63.692C54.7199 63.7494 54.6848 63.8011 54.6482 63.8505L54.6442 63.8561L54.6466 63.8593L54.5542 63.9683L54.4133 64.134L54.4069 64.126C54.4029 64.13 54.399 64.134 54.395 64.138L54.3639 64.1674C54.3504 64.1802 54.3369 64.1913 54.3233 64.2033L54.2843 64.2375C54.2684 64.2518 54.2524 64.2662 54.2357 64.2797L54.223 64.2892C54.2071 64.302 54.1871 64.3163 54.1672 64.3307L54.1266 64.3609C54.1115 64.3729 54.0956 64.3848 54.0796 64.396L54.0661 64.4047C54.0343 64.427 53.996 64.4493 53.9586 64.4724L53.9411 64.4835C53.9331 64.4891 53.9244 64.4939 53.9156 64.4995L53.9212 64.5066L53.7356 64.5934C53.7325 64.595 53.7293 64.5966 53.7261 64.5982L53.5955 64.6587L53.5923 64.6548C53.5748 64.6611 53.5565 64.6683 53.5374 64.6755L53.4808 64.6954C53.4681 64.7001 53.4561 64.7041 53.4434 64.7081C53.4163 64.7169 53.3885 64.724 53.3614 64.7312L53.3279 64.7384C53.3176 64.7415 53.3072 64.7439 53.2969 64.7471C53.2324 64.763 53.1663 64.7758 53.101 64.7861C53.0898 64.7877 53.0795 64.7893 53.0684 64.7901L53.0548 64.7917C53.0023 64.7989 52.9497 64.8037 52.8995 64.806C52.8876 64.8076 52.878 64.8084 52.8685 64.8092C52.8438 64.81 52.8199 64.8108 52.796 64.8108H52.7793H52.7761L52.6837 64.8148ZM51.6 62.7301L52.8613 64.4493C52.8677 64.4485 52.8733 64.4477 52.8796 64.4477C52.9226 64.4453 52.9664 64.4413 53.0094 64.4358L53.0476 64.431C53.1026 64.423 53.1575 64.4119 53.2117 64.3983L53.2714 64.3824C53.2929 64.3768 53.3152 64.3713 53.3359 64.3641C53.3439 64.3617 53.3518 64.3585 53.3598 64.3561L53.4155 64.3362C53.4705 64.3163 53.5151 64.298 53.5557 64.2797C53.5541 64.2797 53.5597 64.2773 53.5644 64.2749L53.578 64.2693C53.6258 64.247 53.6751 64.2216 53.7245 64.1937L53.7317 64.1897C53.7364 64.1873 53.7404 64.1841 53.7452 64.181C53.7532 64.1754 53.7619 64.1706 53.7699 64.165C53.8049 64.1443 53.8368 64.1244 53.8678 64.1037L53.8806 64.0957C53.8861 64.0918 53.8973 64.083 53.9076 64.075L53.9554 64.04C53.9706 64.0289 53.9857 64.0177 54.0008 64.0058L54.0128 63.997C54.0207 63.9906 54.0319 63.9803 54.0438 63.9699L54.0924 63.9277C54.1011 63.9206 54.1107 63.9126 54.1187 63.9046L54.1521 63.872C54.1585 63.8648 54.1648 63.8585 54.1712 63.8513L54.1871 63.8354C54.2071 63.8155 54.227 63.7963 54.2453 63.7756C54.254 63.7645 54.2588 63.7589 54.2636 63.7533C54.2692 63.747 54.2739 63.7414 54.2795 63.7366L54.4157 63.8505L54.2811 63.7358L54.2962 63.7183C54.3122 63.6992 54.3273 63.6793 54.3416 63.6602C54.3472 63.653 54.3504 63.649 54.3536 63.645L54.3584 63.6387C54.3886 63.5989 54.4189 63.5535 54.4515 63.5017C54.4547 63.4961 54.4587 63.4906 54.4627 63.485C54.4627 63.4842 54.4659 63.4786 54.469 63.4738C54.4921 63.4356 54.5144 63.3966 54.5343 63.3568L65.2963 42.1283C65.3098 42.102 65.3226 42.075 65.3345 42.0487C65.3353 42.0455 65.3377 42.0407 65.3401 42.0352C65.3512 42.0097 65.3624 41.9826 65.3719 41.9563L65.3855 41.9221C65.399 41.8847 65.4117 41.8464 65.4221 41.809L65.4269 41.7915C65.4356 41.7596 65.4436 41.7286 65.45 41.6967L65.4571 41.6577C65.4611 41.6338 65.4659 41.6091 65.4691 41.5852C65.4707 41.5741 65.4715 41.563 65.4731 41.551L65.4738 41.5422C65.4762 41.52 65.4786 41.4977 65.4794 41.4754C65.4802 41.461 65.481 41.4467 65.481 41.4316C65.4818 41.4093 65.4818 41.3878 65.4818 41.3663C65.4818 41.3519 65.4818 41.3384 65.481 41.3241C65.4802 41.3018 65.4786 41.2803 65.4762 41.2588L65.4754 41.246C65.4746 41.2373 65.4738 41.2285 65.4731 41.2197C65.4699 41.1959 65.4659 41.172 65.4619 41.1481L65.4579 41.1234C65.4571 41.121 65.4571 41.1178 65.4563 41.1154C65.4516 41.0931 65.446 41.0677 65.4388 41.043L65.4348 41.027C65.4261 40.9936 65.4165 40.9633 65.4054 40.9339C65.4046 40.9315 65.403 40.9283 65.4022 40.9251C65.3863 40.8821 65.3679 40.8391 65.3448 40.7929L65.3369 40.7762C65.3186 40.7404 65.2979 40.7053 65.2732 40.6679L65.2628 40.6512C65.2565 40.6424 65.2461 40.6273 65.235 40.6122L64.3407 39.3922C64.3407 39.3938 64.3407 39.3962 64.3407 39.3978C64.3399 39.4153 64.3391 39.4337 64.3383 39.452C64.3367 39.4798 64.3344 39.5069 64.3312 39.5348L64.3304 39.5427C64.3288 39.5579 64.3272 39.573 64.3256 39.5873C64.3216 39.6168 64.316 39.6471 64.3113 39.6765L64.3089 39.6901C64.3073 39.7012 64.3049 39.7132 64.3025 39.7243C64.2945 39.7625 64.285 39.8015 64.2746 39.8398L64.2691 39.8605C64.2555 39.9067 64.2412 39.9528 64.2245 39.9982C64.2213 40.0078 64.2173 40.0173 64.2133 40.0269L64.2085 40.0388C64.1958 40.0707 64.1838 40.1025 64.1695 40.1344C64.1536 40.171 64.1369 40.2077 64.1178 40.2443L53.238 61.7045L53.1814 61.6272C53.179 61.6312 53.1766 61.6352 53.1735 61.64C53.1392 61.6949 53.1018 61.7507 53.0612 61.8056C53.0532 61.816 53.0453 61.8263 53.0365 61.8367L53.0261 61.8494C52.9991 61.8836 52.972 61.9171 52.9441 61.9489C52.9298 61.9657 52.9147 61.9824 52.8987 61.9991C52.8725 62.027 52.8462 62.054 52.8191 62.0811C52.8 62.1002 52.7857 62.1146 52.7705 62.1281C52.7419 62.1552 52.7116 62.1807 52.6814 62.2061L52.6678 62.2173C52.6575 62.226 52.6463 62.2356 52.636 62.2444C52.5858 62.285 52.538 62.32 52.4918 62.3519C52.4449 62.3845 52.3931 62.4172 52.3334 62.4514C52.323 62.4578 52.3119 62.4633 52.3015 62.4689L52.288 62.4761C52.2418 62.5016 52.194 62.5262 52.1454 62.5485L52.1311 62.5549C52.1168 62.5621 52.1016 62.5685 52.0873 62.5756C52.0706 62.5828 52.0539 62.59 52.0371 62.5971C52.0045 62.6107 51.975 62.6218 51.9448 62.633C51.9265 62.6393 51.9074 62.6465 51.889 62.6521C51.8596 62.6616 51.8301 62.6704 51.8006 62.6791L51.7911 62.6815C51.7736 62.6863 51.7561 62.6919 51.7385 62.6959C51.7083 62.7038 51.6772 62.7102 51.6462 62.7174L51.631 62.7205C51.6223 62.7261 51.6111 62.7285 51.6 62.7301ZM65.7462 40.8168V40.8176C65.7462 40.8168 65.7462 40.8168 65.7462 40.8168ZM65.7422 40.8065C65.743 40.8089 65.7438 40.8104 65.7446 40.8128C65.7438 40.8104 65.743 40.8081 65.7422 40.8065Z" fill="white"/>
<path d="M62.6048 37.8574C63.8462 37.8574 64.535 39.0312 63.9593 40.1659L53.1974 61.3951C52.8351 62.1094 52.0635 62.5912 51.2815 62.5904C52.069 62.5577 52.8335 62.0346 53.1576 61.2932L61.0441 43.2595C61.5306 42.1471 60.8355 41.0538 59.6402 41.0538H57.9632L58.4728 37.8574H62.6048Z" fill="#C51110"/>
<path d="M51.2831 62.7702C51.2823 62.7702 51.2815 62.7702 51.2807 62.7702L51.2736 62.4119C51.9926 62.3824 52.6997 61.8935 52.9928 61.2222L60.8793 43.1885C61.0895 42.7075 61.0656 42.2098 60.8124 41.8236C60.5671 41.4494 60.1403 41.2344 59.6395 41.2344H57.753L58.32 37.6797H62.6041C63.2475 37.6797 63.7929 37.9671 64.1011 38.4696C64.4164 38.9832 64.4228 39.6489 64.1186 40.2485L53.3567 61.4762C52.9641 62.2502 52.1312 62.7702 51.2831 62.7702ZM58.1743 40.8752H59.641C60.2645 40.8752 60.8012 41.1491 61.1134 41.6269C61.4335 42.1166 61.4685 42.7378 61.2081 43.3318L55.2718 56.9063L63.7993 40.0853C64.0509 39.59 64.0493 39.0684 63.7961 38.6559C63.5548 38.2626 63.1209 38.0372 62.6049 38.0372H58.6266L58.1743 40.8752Z" fill="white"/>
<path d="M62.6964 44.4993C62.6948 44.4722 62.6932 44.4452 62.69 44.4181C62.6884 44.4046 62.6868 44.391 62.6852 44.3775C62.6821 44.3536 62.6789 44.3297 62.6741 44.3058C62.6725 44.2986 62.6725 44.2915 62.6709 44.2843C62.6693 44.2771 62.6677 44.2708 62.6661 44.2636C62.6613 44.2421 62.6566 44.2198 62.651 44.1983C62.6478 44.1848 62.6438 44.1712 62.6406 44.1577C62.6343 44.1354 62.6271 44.1131 62.6191 44.0908C62.616 44.0821 62.6136 44.0725 62.6104 44.0637C62.6096 44.0621 62.6088 44.0606 62.608 44.0582C62.5889 44.0064 62.5674 43.957 62.5427 43.9085C62.5403 43.9045 62.5395 43.8997 62.5371 43.8957C62.5355 43.8925 62.5331 43.8901 62.5316 43.887C62.5093 43.8448 62.4854 43.8041 62.4599 43.7651C62.4575 43.7619 62.4559 43.7588 62.4543 43.7556C62.4424 43.7381 62.4304 43.7213 62.4185 43.7046L60.9206 41.6621C60.935 41.682 60.9485 41.7027 60.9621 41.7234C60.9875 41.7632 61.0122 41.8038 61.0337 41.8453C61.0377 41.8524 61.0409 41.8596 61.0449 41.8668C61.0695 41.9153 61.091 41.9655 61.1102 42.0165C61.1141 42.0276 61.1173 42.038 61.1213 42.0491C61.1285 42.0714 61.1364 42.0937 61.1428 42.116C61.1468 42.1295 61.15 42.1431 61.1532 42.1566C61.1587 42.1781 61.1635 42.1996 61.1683 42.2219C61.1715 42.2362 61.1739 42.2498 61.1763 42.2641C61.1802 42.288 61.1842 42.3119 61.1874 42.3358C61.189 42.3493 61.1914 42.3628 61.1922 42.3764C61.1946 42.4035 61.197 42.4305 61.1978 42.4576C61.1986 42.4688 61.1993 42.4799 61.1993 42.4911C61.2001 42.5293 61.2001 42.5683 61.1985 42.6073C61.1985 42.6137 61.1978 42.6201 61.197 42.6272C61.1954 42.6599 61.193 42.6925 61.189 42.726C61.1874 42.7395 61.185 42.753 61.1834 42.7666C61.1794 42.7928 61.1755 42.8199 61.1707 42.8462C61.1683 42.8613 61.1651 42.8765 61.1619 42.8916C61.1563 42.9171 61.15 42.9433 61.1436 42.9696C61.1396 42.9848 61.1356 42.9999 61.1317 43.015C61.1237 43.0429 61.1149 43.0708 61.1054 43.0986C61.1006 43.1114 61.0966 43.1249 61.0918 43.1376C61.0775 43.1783 61.0608 43.2197 61.0433 43.2603L53.1568 61.294C53.1376 61.3378 53.1169 61.38 53.0946 61.4222C53.0931 61.4254 53.0915 61.4278 53.0907 61.431C53.0692 61.4716 53.0461 61.5106 53.0222 61.5496C52.9895 61.6022 52.9553 61.6523 52.9187 61.7017C52.9083 61.716 52.8972 61.7288 52.8868 61.7423C52.8621 61.7734 52.8374 61.8044 52.8112 61.8347C52.7976 61.8506 52.7833 61.8657 52.769 61.8809C52.7451 61.9063 52.7204 61.9318 52.6949 61.9565C52.6798 61.9708 52.6654 61.986 52.6503 61.9995C52.6232 62.0242 52.5954 62.0481 52.5675 62.072C52.5532 62.0839 52.5396 62.0959 52.5253 62.1078C52.4823 62.1429 52.4377 62.1763 52.3915 62.2074C52.3437 62.24 52.2944 62.2703 52.2442 62.2997C52.2307 62.3077 52.2163 62.3148 52.202 62.3228C52.159 62.3467 52.1152 62.369 52.0706 62.3897C52.0531 62.3985 52.0348 62.4064 52.0173 62.4144C52.0005 62.4216 51.9838 62.4287 51.9671 62.4351C51.94 62.4462 51.9129 62.4566 51.8859 62.4661C51.8683 62.4725 51.8516 62.4781 51.8341 62.4845C51.807 62.4932 51.78 62.502 51.7529 62.5091C51.7338 62.5147 51.7155 62.5203 51.6963 62.5251C51.6685 62.5322 51.6398 62.5386 51.6111 62.545C51.5928 62.549 51.5745 62.5529 51.557 62.5569C51.5259 62.5625 51.4941 62.5673 51.4622 62.5713C51.4471 62.5736 51.4312 62.576 51.416 62.5776C51.3691 62.5832 51.3213 62.5872 51.2743 62.5888L24.4081 62.5904C23.8658 62.5904 23.4055 62.3586 23.1284 61.9812L24.6263 64.0237C24.9034 64.4011 25.3636 64.6329 25.9059 64.6329L52.7721 64.6313C52.8199 64.6297 52.8669 64.6257 52.9139 64.6201C52.9298 64.6185 52.9449 64.6153 52.9601 64.6138C52.9919 64.6098 53.023 64.605 53.054 64.5994C53.0723 64.5962 53.0907 64.5915 53.109 64.5875C53.1376 64.5811 53.1655 64.5755 53.1934 64.5676C53.2125 64.5628 53.2316 64.5572 53.2507 64.5516C53.2674 64.5469 53.2842 64.5429 53.3009 64.5373C53.3112 64.5341 53.3216 64.5301 53.3319 64.527C53.3495 64.5214 53.3662 64.515 53.3837 64.5086C53.4108 64.4991 53.4378 64.4879 53.4649 64.4776C53.4816 64.4704 53.4984 64.4641 53.5151 64.4569C53.5238 64.4529 53.5326 64.4497 53.5406 64.4465C53.5501 64.4426 53.5589 64.437 53.5684 64.4322C53.613 64.4115 53.6568 64.3892 53.6998 64.3653C53.7094 64.3605 53.7189 64.3566 53.7277 64.351C53.7325 64.3478 53.7373 64.3446 53.742 64.3422C53.84 64.2857 53.9339 64.2212 54.0223 64.1503C54.0255 64.1479 54.0295 64.1455 54.0327 64.1423C54.0438 64.1336 54.0534 64.1232 54.0645 64.1145C54.0924 64.0906 54.1203 64.0667 54.1473 64.042C54.1529 64.0364 54.1593 64.0317 54.1657 64.0261C54.1752 64.0173 54.1832 64.0078 54.1927 63.9982C54.2182 63.9735 54.2429 63.9481 54.2668 63.9226C54.2748 63.9138 54.2827 63.9066 54.2907 63.8979C54.297 63.8907 54.3026 63.8836 54.309 63.8764C54.3353 63.8461 54.36 63.8159 54.3846 63.784C54.3926 63.7737 54.4014 63.7641 54.4093 63.7538C54.4117 63.7506 54.4141 63.7466 54.4173 63.7426C54.4539 63.6932 54.489 63.6423 54.5208 63.5905C54.5224 63.5881 54.5248 63.5857 54.5264 63.5826C54.5487 63.5459 54.5694 63.5093 54.5893 63.4719C54.5909 63.4687 54.5925 63.4655 54.5941 63.4623C54.6116 63.4281 54.6291 63.3938 54.645 63.3588C54.649 63.3508 54.6522 63.3421 54.6562 63.3341L62.5427 45.3004C62.5602 45.2598 62.5761 45.2184 62.5913 45.1778C62.5961 45.1642 62.6 45.1515 62.6048 45.1387C62.6144 45.1109 62.6231 45.083 62.6311 45.0551C62.6351 45.04 62.639 45.0249 62.643 45.0097C62.6494 44.9835 62.6558 44.958 62.6613 44.9317C62.6645 44.9166 62.6677 44.9014 62.6701 44.8863C62.6749 44.86 62.6789 44.833 62.6828 44.8067C62.6844 44.7931 62.6868 44.7796 62.6884 44.7661C62.6924 44.7326 62.6948 44.7 62.6964 44.6673C62.6964 44.661 62.6972 44.6546 62.698 44.6474C62.6996 44.6084 62.6996 44.5694 62.6988 44.5312C62.698 44.5216 62.6972 44.5105 62.6964 44.4993Z" fill="#FC3837"/>
<path d="M25.9059 64.8133C25.319 64.8133 24.7998 64.5649 24.4821 64.1309L22.9843 62.0884L23.2733 61.8766L23.2749 61.879C23.5249 62.2182 23.9374 62.4125 24.408 62.4125L51.2743 62.4109C51.3101 62.4093 51.3531 62.4053 51.3961 62.4006C51.4033 62.3998 51.4096 62.399 51.4168 62.3974L51.4383 62.3942C51.467 62.3902 51.4956 62.3862 51.5243 62.3807C51.5355 62.3783 51.5458 62.3759 51.5562 62.3743L51.5737 62.3703C51.5992 62.3647 51.6254 62.3592 51.6509 62.3528C51.6653 62.3488 51.6796 62.3448 51.6931 62.3408L51.7027 62.3377C51.7274 62.3305 51.7528 62.3233 51.7775 62.3146C51.7935 62.309 51.8094 62.3034 51.8253 62.2978C51.85 62.2891 51.8755 62.2795 51.9002 62.2692C51.9177 62.262 51.932 62.2564 51.9463 62.2501C51.9575 62.2453 51.9686 62.2397 51.9798 62.2341L51.9957 62.227C52.0371 62.2079 52.0769 62.1872 52.1168 62.1649L52.1558 62.1434C52.2075 62.1131 52.2513 62.086 52.2911 62.0582C52.3302 62.0311 52.3708 62.0016 52.4138 61.9666C52.4217 61.9602 52.4289 61.9538 52.4361 61.9475L52.4528 61.9331C52.4783 61.9116 52.5045 61.8893 52.5292 61.8662C52.5412 61.8551 52.5531 61.8432 52.5651 61.8312C52.5937 61.8033 52.616 61.7802 52.6383 61.7564C52.6511 61.7428 52.6638 61.7285 52.6765 61.7142C52.7012 61.6863 52.7243 61.6584 52.7466 61.629L52.7594 61.613C52.7649 61.6059 52.7705 61.5987 52.7761 61.5915C52.8111 61.5453 52.843 61.4984 52.8708 61.4522C52.8931 61.4163 52.9138 61.3805 52.9338 61.3439L52.9369 61.3367C52.9576 61.2977 52.9768 61.2587 52.9935 61.2189L60.88 43.1851C60.8959 43.1477 60.911 43.1111 60.9238 43.0737L60.9357 43.0378C60.9445 43.0131 60.9525 42.9877 60.9596 42.9622C60.9636 42.9494 60.9668 42.9367 60.97 42.924C60.9771 42.8977 60.9827 42.8746 60.9875 42.8515C60.9907 42.838 60.9931 42.8244 60.9955 42.8109C61.0002 42.787 61.0034 42.7631 61.0066 42.7392L61.0114 42.7026C61.0146 42.6731 61.017 42.6437 61.0186 42.6142L61.0193 42.5991C61.0209 42.5616 61.0209 42.5274 61.0201 42.4932L61.0186 42.4637C61.017 42.4398 61.0162 42.4159 61.013 42.392C61.0122 42.3833 61.0106 42.3745 61.0098 42.3658L61.0082 42.3562C61.0058 42.3347 61.0026 42.314 60.9986 42.2933C60.9963 42.2805 60.9939 42.2686 60.9915 42.2559C60.9875 42.2368 60.9827 42.2176 60.9779 42.1985L60.9684 42.1627C60.9628 42.1428 60.9564 42.1237 60.9493 42.1038L60.9397 42.0751C60.9238 42.0321 60.9055 41.9891 60.8824 41.9437L60.8728 41.9246C60.8537 41.888 60.833 41.8521 60.8099 41.8179C60.798 41.7996 60.7868 41.7821 60.7741 41.7653L60.7733 41.7645L61.0623 41.5527C61.0623 41.5535 61.0631 41.5535 61.0631 41.5543L62.5602 43.5952C62.5737 43.6143 62.5873 43.6335 62.6008 43.6526L62.6096 43.6677C62.6366 43.7099 62.6621 43.7529 62.6852 43.7967C62.6876 43.8015 62.6908 43.8055 62.6932 43.8102L62.7019 43.8293C62.729 43.8835 62.7513 43.9353 62.7704 43.987L62.7744 43.9958C62.7784 44.0077 62.7815 44.0157 62.7839 44.0236C62.7943 44.0547 62.8023 44.0802 62.8094 44.1057C62.8134 44.12 62.8174 44.1343 62.8206 44.1487C62.8269 44.1749 62.8333 44.1996 62.8381 44.2235C62.8405 44.2331 62.8421 44.2394 62.8437 44.2466C62.8453 44.2538 62.846 44.2609 62.8468 44.2681C62.8524 44.2976 62.8564 44.3246 62.8596 44.3517C62.862 44.3708 62.8636 44.3844 62.8652 44.3979C62.8683 44.4274 62.8699 44.4576 62.8715 44.4879L62.8723 44.4982C62.8731 44.507 62.8731 44.5158 62.8739 44.5253C62.8755 44.5675 62.8747 44.6105 62.8731 44.6543L62.8715 44.6726C62.8691 44.7124 62.8668 44.7491 62.862 44.7849C62.8604 44.7952 62.8596 44.8056 62.858 44.816L62.8564 44.8287C62.8524 44.8582 62.8476 44.8876 62.8421 44.9171C62.8389 44.9338 62.8357 44.9497 62.8317 44.9665C62.8253 44.9951 62.819 45.023 62.8118 45.0517C62.807 45.0716 62.803 45.0867 62.7983 45.1018C62.7895 45.1321 62.78 45.1623 62.7696 45.1934L62.7664 45.2045C62.7632 45.2157 62.7593 45.2261 62.7553 45.2372C62.7393 45.2818 62.7218 45.3256 62.7027 45.3702L54.8035 63.4318C54.7867 63.4692 54.7676 63.5066 54.7485 63.5432L54.7437 63.5536C54.7222 63.5942 54.6991 63.6348 54.6753 63.6738L54.6673 63.6858C54.633 63.7407 54.5964 63.7949 54.5566 63.8474C54.5558 63.849 54.5526 63.8538 54.5486 63.8594C54.5423 63.8681 54.5351 63.8761 54.5287 63.8841L54.5224 63.892C54.4953 63.9263 54.4682 63.9597 54.4403 63.9916C54.4324 64.0019 54.4268 64.0083 54.4212 64.0147C54.4149 64.0218 54.4077 64.029 54.4013 64.0354L54.395 64.0417C54.3695 64.0696 54.3424 64.0967 54.3153 64.1238L54.3082 64.1309C54.301 64.1389 54.2938 64.146 54.2859 64.1532C54.2803 64.1588 54.2747 64.1636 54.2691 64.1683C54.2373 64.197 54.2078 64.2233 54.1776 64.2488L54.168 64.2567C54.16 64.2639 54.1513 64.2719 54.1425 64.2782L54.1298 64.2886C54.0374 64.3626 53.9355 64.4327 53.8296 64.494C53.8256 64.4972 53.82 64.5004 53.8137 64.5036C53.8057 64.5084 53.7969 64.5123 53.7882 64.5163C53.7372 64.5442 53.6894 64.5681 53.6417 64.5912C53.6289 64.5983 53.6202 64.6023 53.6114 64.6063C53.605 64.6095 53.5979 64.6119 53.5907 64.6151C53.5652 64.6262 53.5477 64.6334 53.5294 64.6405C53.5007 64.6525 53.4713 64.6636 53.4418 64.674C53.4235 64.6804 53.4044 64.6875 53.386 64.6939L53.3765 64.6971C53.3685 64.7003 53.3606 64.7027 53.3526 64.705C53.3407 64.709 53.3279 64.7122 53.3152 64.7162L53.2889 64.7234C53.2714 64.7281 53.2539 64.7337 53.2363 64.7377C53.2061 64.7457 53.175 64.752 53.1448 64.7592L53.1296 64.7624C53.1153 64.7656 53.1002 64.7687 53.0851 64.7719C53.0508 64.7783 53.0166 64.7831 52.9823 64.7879L52.9672 64.7903C52.9552 64.7918 52.9433 64.7942 52.9322 64.795C52.878 64.8014 52.8271 64.8054 52.7769 64.807L25.9059 64.8133ZM23.8753 62.6976L24.7711 63.9183C25.0212 64.2591 25.4345 64.4542 25.9059 64.4542L52.7721 64.4526C52.8079 64.451 52.8509 64.447 52.8939 64.4423C52.9011 64.4415 52.9083 64.4407 52.9146 64.4391L52.9361 64.4359C52.9648 64.4319 52.9935 64.4279 53.0221 64.4224C53.0333 64.42 53.0436 64.4176 53.0548 64.4152L53.0723 64.4112C53.0978 64.4056 53.1241 64.4001 53.1495 64.3937C53.1639 64.3897 53.1782 64.3857 53.1918 64.3818L53.2244 64.3722C53.2324 64.3698 53.2395 64.3682 53.2475 64.3658L53.2762 64.3555C53.2913 64.3507 53.3072 64.3443 53.3231 64.3387C53.3478 64.33 53.3733 64.3204 53.398 64.3101C53.4139 64.3037 53.429 64.2973 53.4442 64.291L53.472 64.279C53.4792 64.275 53.4864 64.2719 53.4936 64.2679C53.535 64.2488 53.5748 64.2281 53.6146 64.2058C53.6218 64.2018 53.6289 64.1986 53.6361 64.1946C53.6433 64.1906 53.648 64.1875 53.6536 64.1843C53.7444 64.1317 53.8312 64.072 53.9116 64.0075L53.9315 63.9916C53.9379 63.986 53.9443 63.9804 53.9506 63.9748C53.9769 63.9533 54.0024 63.931 54.0271 63.908C54.0318 63.9032 54.0366 63.8992 54.0422 63.8952L54.0518 63.8857C54.0573 63.8801 54.0629 63.8745 54.0685 63.8689C54.0924 63.8458 54.1147 63.8228 54.137 63.7989C54.1425 63.7933 54.1473 63.7877 54.1529 63.7821L54.1593 63.7758C54.1664 63.767 54.1704 63.7614 54.1752 63.7559C54.1991 63.728 54.2222 63.7001 54.2452 63.6715C54.25 63.6651 54.2556 63.6587 54.2612 63.6523L54.2675 63.6444C54.2675 63.6436 54.2707 63.6388 54.2747 63.634C54.309 63.5886 54.3408 63.5417 54.3695 63.4947L54.3766 63.4843C54.3965 63.4525 54.4149 63.4198 54.4324 63.3864L54.4364 63.3776C54.4523 63.3466 54.4682 63.3155 54.4825 63.2837L54.4921 63.2622L62.3794 45.2276C62.3953 45.1902 62.4105 45.1528 62.4232 45.1162L62.4352 45.0811C62.4439 45.0556 62.4519 45.0302 62.459 45.0055C62.4622 44.9935 62.4654 44.9816 62.4686 44.9688C62.4758 44.941 62.4813 44.9179 62.4861 44.894C62.4893 44.8805 62.4917 44.8669 62.4941 44.8534C62.4989 44.8295 62.502 44.8056 62.5052 44.7817L62.51 44.7451C62.5132 44.7156 62.5156 44.687 62.5172 44.6575L62.518 44.6432C62.5196 44.6057 62.5196 44.5707 62.5188 44.5365L62.5172 44.507C62.5156 44.4831 62.514 44.4592 62.5116 44.4353C62.5108 44.425 62.5092 44.4154 62.5076 44.4059C62.5036 44.378 62.5005 44.3573 62.4973 44.3358C62.4965 44.331 62.4957 44.3246 62.4949 44.3183L62.4901 44.2976C62.4861 44.2793 62.4813 44.2601 62.4766 44.241C62.4726 44.2267 62.4702 44.2163 62.467 44.2052C62.4614 44.1853 62.4551 44.1654 62.4479 44.1463L62.4423 44.128C62.4407 44.124 62.4391 44.12 62.4375 44.116C62.4224 44.0746 62.4041 44.0324 62.381 43.987L62.3715 43.9679C62.3523 43.9321 62.3316 43.8962 62.3085 43.8612L62.3006 43.8485C62.2918 43.8349 62.2823 43.8214 62.2719 43.8078L61.3777 42.5887C61.3777 42.5967 61.3769 42.6046 61.3769 42.6118L61.3753 42.6301C61.3729 42.6699 61.3705 42.7066 61.3657 42.7432C61.3641 42.7543 61.3625 42.7663 61.361 42.7782L61.3594 42.7886C61.3554 42.8173 61.3506 42.8467 61.3458 42.8762C61.3426 42.8929 61.3395 42.9096 61.3355 42.9263C61.3291 42.955 61.3227 42.9837 61.3156 43.0123C61.3108 43.0307 61.3068 43.0466 61.302 43.0617C61.2933 43.092 61.2837 43.1222 61.2734 43.1525L61.2694 43.1652C61.2662 43.1748 61.263 43.1851 61.259 43.1947C61.2431 43.2393 61.2256 43.2839 61.2057 43.3285L53.3192 61.3622C53.2993 61.4068 53.2778 61.453 53.2515 61.5015L53.2475 61.5103C53.2236 61.5549 53.1989 61.5979 53.1726 61.6401C53.1384 61.695 53.101 61.7508 53.0604 61.8057C53.0524 61.8161 53.0444 61.8264 53.0357 61.8368L53.0253 61.8495C52.9983 61.8838 52.9712 61.9172 52.9433 61.9491C52.929 61.9658 52.9138 61.9825 52.8979 61.9992C52.8716 62.0271 52.8454 62.0542 52.8183 62.0812C52.7992 62.1004 52.7848 62.1147 52.7697 62.1282C52.741 62.1553 52.7108 62.1808 52.6805 62.2063L52.667 62.2174C52.6566 62.2262 52.6455 62.2357 52.6351 62.2445C52.585 62.2851 52.5372 62.3201 52.491 62.352C52.444 62.3846 52.3923 62.4173 52.3326 62.4515C52.3222 62.4579 52.311 62.4635 52.3007 62.469L52.2872 62.4762C52.241 62.5017 52.1932 62.5264 52.1446 62.5487L52.1303 62.555C52.116 62.5622 52.1008 62.5686 52.0865 62.5758C52.0698 62.5829 52.053 62.5901 52.0363 62.5972C52.0037 62.6108 51.9742 62.6219 51.944 62.6331C51.9256 62.6395 51.9065 62.6466 51.8882 62.6522C51.8588 62.6617 51.8293 62.6705 51.7998 62.6793L51.7903 62.6817C51.7728 62.6864 51.7552 62.692 51.7377 62.696C51.7075 62.704 51.6764 62.7103 51.6453 62.7175L51.6302 62.7207C51.6159 62.7239 51.6008 62.727 51.5864 62.7302C51.5522 62.7366 51.5179 62.7414 51.4837 62.7462L51.4686 62.7485C51.4566 62.7501 51.4455 62.7517 51.4335 62.7533C51.3794 62.7597 51.3284 62.7637 51.2783 62.7653L24.4048 62.7669C24.2217 62.7708 24.0433 62.7454 23.8753 62.6976Z" fill="white"/>
<path d="M61.2591 31.8316L59.7612 29.7891L58.4744 37.8579L57.964 41.0543H59.641C59.6904 41.0543 59.7397 41.0559 59.7867 41.0598L59.9723 39.8996V39.8988L61.2591 31.8316Z" fill="#FCD2C2"/>
<path d="M59.938 41.2525L59.7724 41.239C59.7302 41.2358 59.6856 41.2334 59.641 41.2334H57.7538L59.6514 29.3359L61.4478 31.7845L60.1618 39.8502L60.1498 39.9283L59.938 41.2525ZM58.1742 40.8751H59.6354L59.7955 39.8717L61.0704 31.8769L59.8703 30.2405L58.6624 37.8133L58.6512 37.8866L58.1742 40.8751Z" fill="white"/>
<path d="M61.0449 43.2587L53.1584 61.2924C52.8343 62.0338 52.0699 62.5577 51.2744 62.5896L24.4081 62.5912C23.5856 62.5912 22.9517 62.0577 22.8601 61.2916L20.3486 40.0624C20.2172 38.9499 21.2604 37.8574 22.4548 37.8574H32.2182C33.0408 37.8574 33.6762 38.3893 33.767 39.1554L33.8379 39.755C33.9286 40.5218 34.5625 41.0546 35.3859 41.0546H59.6419C59.6912 41.0546 59.7406 41.0561 59.7876 41.0601C60.892 41.1445 61.5108 42.1925 61.0449 43.2587Z" fill="#FF6867"/>
<path d="M24.4073 62.7714C23.4931 62.7714 22.7836 62.1718 22.6817 61.3142L20.1702 40.0833C20.1049 39.5299 20.3032 38.9462 20.7156 38.4828C21.1703 37.9716 21.8042 37.6777 22.4548 37.6777H32.2181C33.1331 37.6777 33.8434 38.2765 33.9445 39.1342L34.0154 39.7338C34.095 40.4058 34.658 40.8749 35.385 40.8749H59.641C59.6959 40.8749 59.7493 40.8773 59.8019 40.8812C60.3784 40.9258 60.8689 41.2165 61.1468 41.6783C61.4359 42.1585 61.4581 42.7613 61.2097 43.3306L53.3232 61.3644C52.9712 62.1694 52.151 62.734 51.2823 62.769L24.4073 62.7714ZM22.4548 38.0369C21.9141 38.0369 21.3646 38.2925 20.9832 38.7209C20.6392 39.1079 20.4728 39.5888 20.5261 40.0411L23.0376 61.272C23.1173 61.9441 23.6803 62.4131 24.4073 62.4131L51.2735 62.4115C51.9902 62.3828 52.6997 61.8931 52.9935 61.2218L60.88 43.1881C61.0815 42.7263 61.0664 42.2437 60.8386 41.8639C60.6212 41.5023 60.2334 41.2746 59.7732 41.2396C59.7302 41.2364 59.6856 41.234 59.641 41.234H35.385C34.4709 41.234 33.7614 40.6344 33.6594 39.7768L33.5886 39.1772C33.5089 38.5059 32.9452 38.0369 32.2181 38.0369H22.4548Z" fill="white"/>
<path d="M57.964 41.2327H35.385C34.4708 41.2327 33.7613 40.6339 33.6586 39.7762L33.5886 39.1766C33.5089 38.5054 32.9451 38.0363 32.2181 38.0363H25.7944C25.7418 38.0363 25.6925 38.0132 25.6582 37.9734C25.624 37.9336 25.6097 37.8811 25.6176 37.8293L25.9752 35.5853C25.9887 35.4985 26.0643 35.434 26.1519 35.434H30.6765L32.0581 26.7703H27.5908C27.5383 26.7703 27.4889 26.7472 27.4547 26.7074C27.4204 26.6676 27.4061 26.6151 27.4141 26.5633L28.247 21.3388C28.2605 21.252 28.3362 21.1875 28.4238 21.1875H52.374C52.4257 21.1875 52.4743 21.2098 52.5086 21.2488L52.6344 21.3921C52.6694 21.432 52.6853 21.4861 52.6766 21.5387L51.3906 29.6083H59.7604C59.813 29.6083 59.8624 29.6314 59.8966 29.6712C59.9308 29.7111 59.9452 29.7636 59.9372 29.8154L58.1408 41.0814C58.1272 41.169 58.0524 41.2327 57.964 41.2327ZM26.0046 37.678H32.2189C33.1331 37.678 33.8434 38.2768 33.9453 39.1344L34.0154 39.734C34.095 40.4053 34.6588 40.8743 35.3858 40.8743H57.8111L59.551 29.9667H51.1811C51.1286 29.9667 51.0792 29.9436 51.045 29.9038C51.0107 29.8639 50.9964 29.8114 51.0044 29.7596L52.3103 21.5649L52.2936 21.5458H28.5775L27.8011 26.412H32.2683C32.3208 26.412 32.3702 26.4351 32.4045 26.4749C32.4387 26.5147 32.453 26.5673 32.4451 26.619L31.0062 35.6411C30.9926 35.7279 30.917 35.7924 30.8294 35.7924H26.3048L26.0046 37.678ZM49.3496 38.9704H34.6213C34.447 38.9704 34.2861 38.8995 34.1802 38.7753C34.0759 38.6527 34.0329 38.4926 34.0592 38.3254C34.1117 37.9949 34.4199 37.7361 34.7607 37.7361H49.489C49.6626 37.7361 49.8234 37.807 49.9286 37.9304C50.0337 38.0531 50.0767 38.2139 50.0496 38.3819C49.997 38.7116 49.6897 38.9704 49.3496 38.9704ZM34.7607 38.0945C34.5975 38.0945 34.4382 38.2258 34.4135 38.3819C34.4032 38.4448 34.4175 38.5006 34.4533 38.5428C34.4916 38.5874 34.5513 38.6121 34.6213 38.6121H49.3496C49.5129 38.6121 49.6714 38.4807 49.696 38.3254C49.7064 38.2625 49.6921 38.2051 49.6562 38.1629C49.618 38.1183 49.5591 38.0945 49.489 38.0945H34.7607ZM49.8179 36.0352H35.0888C34.9144 36.0352 34.7543 35.9644 34.6484 35.8401C34.5433 35.7175 34.5003 35.5575 34.5274 35.3894C34.5799 35.0598 34.8881 34.801 35.2289 34.801H49.9572C50.1316 34.801 50.2917 34.8719 50.3976 34.9953C50.5019 35.1179 50.5449 35.278 50.5186 35.446C50.4653 35.7764 50.1579 36.0352 49.8179 36.0352ZM35.2289 35.1593C35.0657 35.1593 34.9064 35.2907 34.8817 35.446C34.8714 35.5097 34.8857 35.5654 34.9216 35.6076C34.9598 35.6522 35.0195 35.6769 35.0896 35.6769H49.8179C49.9811 35.6769 50.1396 35.5455 50.1643 35.3894C50.1746 35.3257 50.1611 35.27 50.1244 35.2278C50.0862 35.1832 50.0273 35.1593 49.9572 35.1593H35.2289ZM50.2861 33.0985H35.5578C35.3834 33.0985 35.2226 33.0276 35.1166 32.9034C35.0123 32.7808 34.9693 32.6207 34.9956 32.4535C35.0482 32.123 35.3563 31.8642 35.6971 31.8642H50.4254C50.599 31.8642 50.7599 31.9351 50.865 32.0585C50.9701 32.1812 51.0131 32.342 50.986 32.51C50.9335 32.8405 50.6261 33.0985 50.2861 33.0985ZM35.6971 32.2226C35.5339 32.2226 35.3746 32.354 35.35 32.51C35.3396 32.5729 35.3539 32.6287 35.3898 32.6709C35.428 32.7155 35.4877 32.7402 35.5578 32.7402H50.2861C50.4493 32.7402 50.6078 32.6088 50.6325 32.4535C50.6428 32.3906 50.6285 32.3333 50.5927 32.2911C50.5544 32.2465 50.4955 32.2226 50.4254 32.2226H35.6971Z" fill="white"/>
<path d="M22.7908 26.4453L21.3057 35.7572H30.9536L32.4387 26.4453H22.7908ZM31.0491 27.6111L29.9359 34.5906H22.6928L23.806 27.6111H31.0491Z" fill="#FC3837"/>
<path d="M52.5014 21.5117L59.762 29.7884H51.1812L52.5014 21.5117Z" fill="#FC3837"/>
<path d="M59.762 29.9669H51.1811C51.1286 29.9669 51.0792 29.9438 51.045 29.904C51.0107 29.8642 50.9964 29.8116 51.0043 29.7599L52.3246 21.4832C52.3357 21.4147 52.3851 21.3581 52.452 21.339C52.5189 21.3199 52.5906 21.3406 52.6368 21.3932L59.8974 29.6699C59.9436 29.7224 59.9547 29.7981 59.926 29.8618C59.8958 29.9263 59.8321 29.9669 59.762 29.9669ZM51.3913 29.6086H59.3662L52.6176 21.9163L51.3913 29.6086Z" fill="white"/>
<path d="M50.8394 32.0808C50.7391 31.9629 50.5918 31.8984 50.4262 31.8984H35.6971C35.373 31.8984 35.0791 32.1445 35.0298 32.459C35.0043 32.6167 35.0449 32.7664 35.1428 32.8819C35.2424 32.9981 35.3937 33.065 35.5577 33.065H50.286C50.6101 33.065 50.9023 32.819 50.9525 32.5052C50.978 32.3468 50.9374 32.1963 50.8394 32.0808Z" fill="#FF6867"/>
<path d="M49.9572 34.8359H35.2289C34.9048 34.8359 34.6118 35.082 34.5616 35.3957C34.5361 35.5534 34.5768 35.7039 34.6747 35.8186C34.7742 35.9348 34.9247 36.0017 35.0896 36.0017H49.8179C50.142 36.0017 50.4342 35.7557 50.4844 35.4411C50.5099 35.2835 50.4692 35.133 50.3713 35.0183C50.2726 34.902 50.1213 34.8359 49.9572 34.8359Z" fill="#FF6867"/>
<path d="M49.489 37.7695H34.7607C34.4366 37.7695 34.1427 38.0156 34.0934 38.3301C34.0679 38.4878 34.1085 38.6375 34.2064 38.753C34.306 38.8692 34.4573 38.9361 34.6213 38.9361H49.3496C49.6737 38.9361 49.9659 38.69 50.0161 38.3763C50.0416 38.2186 50.001 38.0681 49.903 37.9527C49.8019 37.834 49.6554 37.7695 49.489 37.7695Z" fill="#FF6867"/>
<path d="M66.1158 31.0723L66.2933 32.1815C66.4 32.8464 66.8563 33.3672 67.5133 33.5726L68.6098 33.9142L67.4042 34.2559C66.6827 34.4613 66.06 34.9813 65.7407 35.647L65.2096 36.7562L65.0312 35.647C64.9245 34.9821 64.4682 34.4613 63.8113 34.2559L62.7156 33.9142L63.9204 33.5726C64.6418 33.3672 65.2645 32.8472 65.5838 32.1815L66.1158 31.0723Z" fill="#FF6867"/>
<path d="M26.1416 20.1211L26.2778 20.9715C26.3598 21.4812 26.7094 21.8809 27.2134 22.0378L28.0543 22.2998L27.1298 22.5625C26.5764 22.7194 26.0994 23.1184 25.8542 23.628L25.4465 24.4792L25.3103 23.628C25.2283 23.1184 24.8779 22.7194 24.3746 22.5625L23.5345 22.2998L24.4582 22.0378C25.0117 21.8809 25.4887 21.4812 25.7339 20.9715L26.1416 20.1211Z" fill="#FF6867"/>
<path d="M59.0517 57.6641L59.1274 58.1387C59.1736 58.4221 59.3687 58.6451 59.649 58.7327L60.1172 58.8792L59.6028 59.0257C59.2938 59.1133 59.0279 59.3363 58.8917 59.6198L58.6647 60.0944L58.5891 59.6198C58.5429 59.3363 58.3486 59.1133 58.0683 59.0257L57.6001 58.8792L58.1153 58.7327C58.4243 58.6451 58.6894 58.4221 58.8256 58.1387L59.0517 57.6641Z" fill="#FF6867"/>
<path d="M19.8254 51.3984L19.9011 51.8722C19.9465 52.1565 20.1416 52.3787 20.4226 52.4663L20.8909 52.6128L20.3765 52.7593C20.0675 52.8469 19.8015 53.0699 19.6654 53.3541L19.4384 53.8279L19.3628 53.3541C19.3182 53.0699 19.1223 52.8477 18.842 52.7593L18.3738 52.6128L18.8882 52.4663C19.1971 52.3795 19.4631 52.1565 19.5985 51.8722L19.8254 51.3984Z" fill="#FF6867"/>
</svg>
