<svg width="45" height="44" viewBox="0 0 45 44" fill="none" xmlns="http://www.w3.org/2000/svg">
<path d="M43.2133 19.27L40.2666 15.8467C39.7033 15.1967 39.2483 13.9833 39.2483 13.1167V9.43333C39.2483 7.13666 37.3633 5.25166 35.0666 5.25166H31.3833C30.5383 5.25166 29.3033 4.79666 28.6533 4.23333L25.2299 1.28666C23.735 0.00832811 21.2866 0.00832811 19.7699 1.28666L16.3683 4.25499C15.7183 4.79666 14.4833 5.25166 13.6383 5.25166H9.88995C7.59328 5.25166 5.70828 7.13666 5.70828 9.43333V13.1383C5.70828 13.9833 5.25328 15.1967 4.71162 15.8467L1.78662 19.2917C0.52995 20.7867 0.52995 23.2133 1.78662 24.7083L4.71162 28.1533C5.25328 28.8033 5.70828 30.0167 5.70828 30.8617V34.5667C5.70828 36.8633 7.59328 38.7483 9.88995 38.7483H13.6383C14.4833 38.7483 15.7183 39.2033 16.3683 39.7667L19.7916 42.7133C21.2866 43.9917 23.735 43.9917 25.2516 42.7133L28.675 39.7667C29.325 39.2033 30.5383 38.7483 31.405 38.7483H35.0883C37.3849 38.7483 39.27 36.8633 39.27 34.5667V30.8833C39.27 30.0383 39.725 28.8033 40.2883 28.1533L43.235 24.73C44.4916 23.235 44.4916 20.765 43.2133 19.27ZM31.5133 17.905L21.0483 28.37C20.7449 28.6733 20.3333 28.8467 19.9 28.8467C19.4666 28.8467 19.055 28.6733 18.7516 28.37L13.5083 23.1267C12.8799 22.4983 12.8799 21.4583 13.5083 20.83C14.1366 20.2017 15.1766 20.2017 15.8049 20.83L19.9 24.925L29.2166 15.6083C29.845 14.98 30.885 14.98 31.5133 15.6083C32.1416 16.2367 32.1416 17.2767 31.5133 17.905Z" fill="#43BA00"/>
</svg>
