<svg width="21" height="20" viewBox="0 0 21 20" fill="none" xmlns="http://www.w3.org/2000/svg">
<path d="M12.375 1.875C12.375 0.859375 11.5156 0 10.5 0C9.44531 0 8.625 0.859375 8.625 1.875C8.625 2.92969 9.44531 3.75 10.5 3.75C11.5156 3.75 12.375 2.92969 12.375 1.875ZM12.375 18.125C12.375 17.1094 11.5156 16.25 10.5 16.25C9.44531 16.25 8.625 17.1094 8.625 18.125C8.625 19.1797 9.44531 20 10.5 20C11.5156 20 12.375 19.1797 12.375 18.125ZM2.375 11.875C3.39062 11.875 4.25 11.0547 4.25 10C4.25 8.98438 3.39062 8.125 2.375 8.125C1.32031 8.125 0.5 8.98438 0.5 10C0.5 11.0547 1.32031 11.875 2.375 11.875ZM20.5 10C20.5 8.98438 19.6406 8.125 18.625 8.125C17.5703 8.125 16.75 8.98438 16.75 10C16.75 11.0547 17.5703 11.875 18.625 11.875C19.6406 11.875 20.5 11.0547 20.5 10ZM6.04688 17.0703C6.78906 16.3672 6.78906 15.1562 6.04688 14.4531C5.34375 13.7109 4.13281 13.7109 3.42969 14.4531C2.6875 15.1562 2.6875 16.3672 3.42969 17.0703C4.13281 17.8125 5.34375 17.8125 6.04688 17.0703ZM6.04688 5.58594C6.78906 4.88281 6.78906 3.67188 6.04688 2.92969C5.34375 2.22656 4.13281 2.22656 3.42969 2.92969C2.6875 3.67188 2.6875 4.88281 3.42969 5.58594C4.13281 6.32812 5.34375 6.32812 6.04688 5.58594ZM14.9141 17.0703C15.6172 17.8125 16.8281 17.8125 17.5703 17.0703C18.2734 16.3672 18.2734 15.1562 17.5703 14.4531C16.8281 13.7109 15.6172 13.7109 14.9141 14.4531C14.1719 15.1562 14.1719 16.3672 14.9141 17.0703Z" fill="white"/>
</svg>
