<svg width="110" height="30" viewBox="0 0 110 30" fill="none" xmlns="http://www.w3.org/2000/svg">
<path fill-rule="evenodd" clip-rule="evenodd" d="M16.2329 29.4924C16.1803 26.3324 16.0178 23.9285 18.3689 22.5494C20.7352 21.1615 22.7632 22.6526 25.5392 19.9675C27.044 18.5119 28.2162 15.4339 27.1374 12.5664C26.1468 9.93384 24.2971 8.93597 21.7877 8.1693C20.4857 0.671776 9.51432 0.647022 8.2421 8.16412C5.77261 8.95368 3.80012 9.92767 2.81191 12.7889C0.820467 18.5544 7.01384 24.0634 12.5253 21.1241C14.8248 19.8977 16.0124 17.9695 16.2645 14.6519C17.4737 15.2743 18.1992 16.2092 20.6756 16.2016L20.6751 13.8597C19.2864 13.711 18.3019 13.2753 17.5482 12.5576C16.2215 11.2944 16.4082 9.99152 16.0845 9.39825L13.9512 9.39289C13.8305 9.62421 13.9014 9.46465 13.8182 9.77142C13.7743 9.93329 13.7457 10.1167 13.7095 10.2852C13.6368 10.6228 13.5856 10.8105 13.4672 11.0938C12.7696 12.7629 11.337 13.6128 9.37167 13.8515L9.35065 16.1886C11.668 16.2656 12.4048 15.3884 13.7749 14.6422C13.943 19.2621 8.64907 21.1155 5.90555 17.9464C4.03163 15.7818 4.72167 12.2594 7.41364 10.9855C8.6747 10.3886 9.46607 10.782 10.5152 10.4492C10.5574 8.61343 10.5974 7.64025 11.6005 6.48992C14.1353 3.58341 19.6009 4.24901 19.5135 10.4491C20.3331 10.7024 24.1977 10.1978 25.0736 14.0152C25.6874 16.6898 23.8307 18.9887 21.6497 19.416C19.5603 19.8252 17.5354 19.3275 15.2384 22.1668C13.5664 24.2335 13.7725 26.5035 13.7938 29.4924H11.408C11.4635 27.4024 11.7557 24.9412 9.91998 24.4512C8.42953 24.0534 6.99408 24.5907 4.4073 22.9545C-1.86077 18.9898 -1.07209 10.3524 4.43349 7.09099C6.14772 6.07554 5.97282 6.68496 6.47045 5.6233C7.33975 3.76828 8.17277 2.81349 9.60143 1.7499C14.2024 -1.67557 21.1428 0.110363 23.5187 5.51649C23.8233 6.20978 23.6309 6.14144 24.2774 6.43486C31.8161 9.85653 31.6268 19.1371 25.7172 22.8934C23.074 24.5736 21.9824 24.0185 20.2392 24.4184C18.2996 24.8634 18.553 27.391 18.6314 29.4924H16.2329Z" fill="#43BA00"/>
<path d="M35.7699 29.7523C35.2849 29.7523 34.9131 29.6068 34.6545 29.3158C34.3959 29.0249 34.2665 28.6208 34.2665 28.1035V19.2049C34.2665 18.6715 34.3959 18.2674 34.6545 17.9926C34.9131 17.7016 35.2849 17.5561 35.7699 17.5561C36.2548 17.5561 36.6266 17.7016 36.8852 17.9926C37.16 18.2674 37.2974 18.6715 37.2974 19.2049V28.1035C37.2974 28.6208 37.1681 29.0249 36.9095 29.3158C36.6508 29.6068 36.271 29.7523 35.7699 29.7523ZM35.7699 15.3012C35.2041 15.3012 34.7596 15.1638 34.4363 14.889C34.1291 14.598 33.9756 14.202 33.9756 13.7009C33.9756 13.1836 34.1291 12.7876 34.4363 12.5128C34.7596 12.238 35.2041 12.1006 35.7699 12.1006C36.3518 12.1006 36.7963 12.238 37.1034 12.5128C37.4106 12.7876 37.5641 13.1836 37.5641 13.7009C37.5641 14.202 37.4106 14.598 37.1034 14.889C36.7963 15.1638 36.3518 15.3012 35.7699 15.3012Z" fill="white"/>
<path d="M41.3402 29.7765C40.8553 29.7765 40.4835 29.6472 40.2249 29.3886C39.9662 29.1138 39.8369 28.7258 39.8369 28.2247V19.0594C39.8369 18.5583 39.9662 18.1785 40.2249 17.9198C40.4835 17.6612 40.8472 17.5319 41.316 17.5319C41.7847 17.5319 42.1484 17.6612 42.4071 17.9198C42.6657 18.1785 42.795 18.5583 42.795 19.0594V20.7082L42.5283 20.1021C42.8839 19.2453 43.4335 18.5988 44.1771 18.1623C44.9368 17.7097 45.7935 17.4834 46.7473 17.4834C47.701 17.4834 48.4849 17.6612 49.0992 18.0168C49.7135 18.3724 50.1741 18.914 50.4813 19.6414C50.7884 20.3526 50.942 21.2578 50.942 22.357V28.2247C50.942 28.7258 50.8126 29.1138 50.554 29.3886C50.2954 29.6472 49.9236 29.7765 49.4387 29.7765C48.9537 29.7765 48.5739 29.6472 48.2991 29.3886C48.0404 29.1138 47.9111 28.7258 47.9111 28.2247V22.5025C47.9111 21.5811 47.7333 20.9103 47.3777 20.49C47.0382 20.0697 46.5048 19.8596 45.7774 19.8596C44.8883 19.8596 44.1771 20.1425 43.6437 20.7082C43.1264 21.2578 42.8678 21.9933 42.8678 22.9147V28.2247C42.8678 29.2593 42.3586 29.7765 41.3402 29.7765Z" fill="white"/>
<path d="M58.2343 29.7769C57.8302 29.7769 57.4746 29.6718 57.1674 29.4617C56.8765 29.2515 56.634 28.9282 56.44 28.4918L52.5848 19.5447C52.4393 19.1891 52.3827 18.8577 52.4151 18.5506C52.4636 18.2435 52.609 18.001 52.8515 17.8232C53.1101 17.6292 53.4577 17.5322 53.8941 17.5322C54.2659 17.5322 54.565 17.6211 54.7913 17.7989C55.0176 17.9606 55.2196 18.2758 55.3974 18.7446L58.6707 26.9157H57.9433L61.3137 18.7203C61.4915 18.2677 61.6935 17.9606 61.9198 17.7989C62.1623 17.6211 62.4856 17.5322 62.8897 17.5322C63.2453 17.5322 63.5282 17.6292 63.7383 17.8232C63.9485 18.001 64.0778 18.2435 64.1263 18.5506C64.1748 18.8416 64.1182 19.1648 63.9566 19.5205L60.0286 28.4918C59.8508 28.9282 59.6083 29.2515 59.3012 29.4617C59.0102 29.6718 58.6546 29.7769 58.2343 29.7769Z" fill="white"/>
<path d="M71.2481 29.825C69.9065 29.825 68.7507 29.5745 67.7809 29.0734C66.811 28.5723 66.0593 27.861 65.5259 26.9397C65.0086 26.0183 64.75 24.9272 64.75 23.6663C64.75 22.4378 65.0006 21.3629 65.5017 20.4415C66.0189 19.5201 66.7221 18.8008 67.6111 18.2835C68.5163 17.7501 69.5428 17.4834 70.6905 17.4834C71.531 17.4834 72.2827 17.6208 72.9454 17.8956C73.6243 18.1704 74.1982 18.5664 74.6669 19.0837C75.1519 19.601 75.5156 20.2314 75.7581 20.9749C76.0167 21.7023 76.146 22.5267 76.146 23.4481C76.146 23.7391 76.0409 23.9654 75.8308 24.127C75.6368 24.2725 75.3539 24.3452 74.9822 24.3452H67.1989V22.5995H74.0123L73.6243 22.9632C73.6243 22.2196 73.5112 21.5973 73.2849 21.0962C73.0747 20.5951 72.7595 20.2152 72.3393 19.9566C71.9351 19.6818 71.426 19.5444 70.8117 19.5444C70.1328 19.5444 69.5509 19.706 69.0659 20.0293C68.5972 20.3364 68.2335 20.781 67.9748 21.3629C67.7324 21.9286 67.6111 22.6076 67.6111 23.3996V23.5694C67.6111 24.8948 67.9183 25.889 68.5325 26.5517C69.1629 27.1983 70.0843 27.5216 71.2966 27.5216C71.7169 27.5216 72.1857 27.4731 72.703 27.3761C73.2364 27.2629 73.7375 27.0771 74.2063 26.8184C74.5457 26.6244 74.8448 26.5436 75.1034 26.576C75.362 26.5921 75.5641 26.681 75.7096 26.8427C75.8712 27.0043 75.9682 27.2064 76.0005 27.4488C76.0329 27.6751 75.9844 27.9095 75.855 28.152C75.7419 28.3945 75.5398 28.6046 75.2489 28.7824C74.6831 29.138 74.0284 29.4048 73.2849 29.5826C72.5575 29.7442 71.8786 29.825 71.2481 29.825Z" fill="white"/>
<path d="M81.5954 29.825C80.7387 29.825 79.9708 29.6634 79.2919 29.3401C78.6292 29.0006 78.1038 28.548 77.7159 27.9823C77.3441 27.4165 77.1582 26.778 77.1582 26.0668C77.1582 25.1939 77.3845 24.5069 77.8371 24.0058C78.2897 23.4885 79.0252 23.1167 80.0436 22.8904C81.0619 22.6641 82.4278 22.551 84.1413 22.551H85.3536V24.2968H84.1655C83.1633 24.2968 82.3632 24.3452 81.7651 24.4422C81.167 24.5392 80.7387 24.709 80.48 24.9514C80.2375 25.1777 80.1163 25.501 80.1163 25.9213C80.1163 26.4547 80.3022 26.8912 80.674 27.2306C81.0458 27.5701 81.563 27.7398 82.2258 27.7398C82.7592 27.7398 83.228 27.6186 83.6321 27.3761C84.0524 27.1175 84.3838 26.7699 84.6262 26.3335C84.8687 25.897 84.9899 25.3959 84.9899 24.8302V22.0418C84.9899 21.2336 84.8121 20.6516 84.4565 20.296C84.1009 19.9404 83.5028 19.7626 82.6622 19.7626C82.1935 19.7626 81.6843 19.8192 81.1347 19.9323C80.6013 20.0455 80.0355 20.2395 79.4374 20.5143C79.1303 20.6597 78.8555 20.7001 78.613 20.6355C78.3867 20.5708 78.2089 20.4415 78.0796 20.2475C77.9503 20.0374 77.8856 19.8111 77.8856 19.5686C77.8856 19.3262 77.9503 19.0918 78.0796 18.8655C78.2089 18.623 78.4271 18.4452 78.7342 18.332C79.4778 18.0249 80.1891 17.8067 80.868 17.6774C81.563 17.5481 82.1935 17.4834 82.7592 17.4834C83.9231 17.4834 84.8768 17.6612 85.6203 18.0168C86.3801 18.3724 86.9458 18.914 87.3176 19.6414C87.6894 20.3526 87.8753 21.274 87.8753 22.4055V28.2247C87.8753 28.7258 87.7541 29.1138 87.5116 29.3886C87.2691 29.6472 86.9216 29.7765 86.469 29.7765C86.0164 29.7765 85.6608 29.6472 85.4021 29.3886C85.1597 29.1138 85.0384 28.7258 85.0384 28.2247V27.0609H85.2324C85.1192 27.6267 84.8929 28.1197 84.5535 28.5399C84.2302 28.9441 83.818 29.2593 83.3169 29.4856C82.8158 29.7119 82.242 29.825 81.5954 29.825Z" fill="white"/>
<path d="M91.7481 29.7771C91.247 29.7771 90.859 29.6478 90.5842 29.3892C90.3256 29.1144 90.1963 28.7264 90.1963 28.2253V19.06C90.1963 18.5589 90.3256 18.1791 90.5842 17.9204C90.8429 17.6618 91.2066 17.5325 91.6753 17.5325C92.1441 17.5325 92.5078 17.6618 92.7665 17.9204C93.0251 18.1791 93.1544 18.5589 93.1544 19.06V20.5876H92.9119C93.1382 19.6177 93.5828 18.8822 94.2455 18.3811C94.9083 17.88 95.7892 17.581 96.8884 17.484C97.2279 17.4517 97.4946 17.5406 97.6886 17.7507C97.8987 17.9447 98.0199 18.2518 98.0523 18.6721C98.0846 19.0762 97.9876 19.4076 97.7613 19.6662C97.5512 19.9087 97.2279 20.0542 96.7914 20.1027L96.258 20.1512C95.272 20.2481 94.5284 20.5553 94.0273 21.0725C93.5262 21.5736 93.2756 22.2849 93.2756 23.2063V28.2253C93.2756 28.7264 93.1463 29.1144 92.8877 29.3892C92.6291 29.6478 92.2492 29.7771 91.7481 29.7771Z" fill="white"/>
<path d="M100.399 29.7765C99.9139 29.7765 99.5421 29.6472 99.2835 29.3886C99.0248 29.1138 98.8955 28.7258 98.8955 28.2247V19.0594C98.8955 18.5583 99.0248 18.1785 99.2835 17.9198C99.5421 17.6612 99.9058 17.5319 100.375 17.5319C100.843 17.5319 101.207 17.6612 101.466 17.9198C101.724 18.1785 101.854 18.5583 101.854 19.0594V20.7082L101.587 20.1021C101.943 19.2453 102.492 18.5988 103.236 18.1623C103.995 17.7097 104.852 17.4834 105.806 17.4834C106.76 17.4834 107.544 17.6612 108.158 18.0168C108.772 18.3724 109.233 18.914 109.54 19.6414C109.847 20.3526 110.001 21.2578 110.001 22.357V28.2247C110.001 28.7258 109.871 29.1138 109.613 29.3886C109.354 29.6472 108.982 29.7765 108.497 29.7765C108.012 29.7765 107.632 29.6472 107.358 29.3886C107.099 29.1138 106.97 28.7258 106.97 28.2247V22.5025C106.97 21.5811 106.792 20.9103 106.436 20.49C106.097 20.0697 105.563 19.8596 104.836 19.8596C103.947 19.8596 103.236 20.1425 102.702 20.7082C102.185 21.2578 101.926 21.9933 101.926 22.9147V28.2247C101.926 29.2593 101.417 29.7765 100.399 29.7765Z" fill="white"/>
</svg>
